# xmcd CD database file
#
# Track frame offsets:
#	150
#	30408
#	66721
#	105285
#	132512
#	162816
#
# Disc length: 2585 seconds
#
# Revision: 0
# Processed by: cddbd v1.5.2PL0 Copyright (c) Steve Scherf et al.
# Submitted via: CDex 1.70beta2
#
DISCID=4a0a1706
DTITLE=Matt Ulery - To The Brim
DYEAR=2012
DGENRE=Jazz
TTITLE0=Processional
TTITLE1=Somebody Somewhere
TTITLE2=Broken and Blinded
TTITLE3=Sow the Deep Seeds
TTITLE4=To the Brim
TTITLE5=Gone as it Always Was
EXTD=YEAR: 2012
EXTT0=
EXTT1=
EXTT2=
EXTT3=
EXTT4=
EXTT5=
PLAYORDER=
